<svg width="378" height="379" viewBox="0 0 378 379" fill="none" xmlns="http://www.w3.org/2000/svg">
<path d="M227.574 3.51493C213.329 8.94691 202.396 14.0594 191.861 20.1703C189.348 21.6082 187.113 22.8065 186.874 22.8065C186.674 22.8065 184.24 21.5283 181.487 19.9307C175.741 16.5756 166.124 11.7428 159.54 8.82709C154.353 6.55045 140.307 0.958701 138.791 0.55929C137.913 0.359585 137.434 0.798937 134.402 4.43357C132.526 6.67027 130.092 9.58597 128.975 10.944C122.551 18.6526 112.855 32.4322 107.947 40.8997L105.433 45.2933L93.8609 45.5728C86.5189 45.7326 79.4961 46.132 74.5482 46.6912C66.9667 47.49 53.8787 49.3273 52.522 49.7267C51.7639 49.9664 51.4845 51.0847 49.8086 60.8303C47.2948 75.289 46.3371 84.5154 45.9381 97.2965L45.6987 106.163L41.469 108.52C30.9747 114.351 20.4005 121.501 8.23028 131.087C3.7612 134.601 1.12764 136.918 1.12764 137.357C1.12764 138.356 6.63418 153.414 9.58696 160.523C12.2604 166.994 17.4876 177.858 20.8395 183.889C22.0764 186.046 23.074 187.963 23.074 188.083C23.074 188.202 21.5976 190.759 19.8419 193.714C14.2156 202.981 4.91837 222.671 0.529102 234.574C-0.189143 236.491 -0.189143 236.491 0.608906 237.17C1.04783 237.53 3.96071 240.006 7.0332 242.682C19.2434 253.266 30.3761 261.454 41.2695 267.925L44.9006 270.081L45.14 283.302C45.3396 297.162 45.8583 303.872 47.7337 316.892L48.8111 324.441L52.4023 325.2C69.3608 328.635 83.207 330.392 97.2926 330.912C101.123 331.071 104.315 331.311 104.395 331.471C104.435 331.631 105.991 334.426 107.827 337.702C111.338 344.012 115.049 350.043 119.239 356.234C122.471 361.067 133.564 375.805 133.923 375.805C134.083 375.805 138.153 374.487 142.981 372.85C151.68 369.934 159.9 366.779 167.92 363.224C171.591 361.626 183.003 355.835 184.998 354.597C185.597 354.237 186.275 354.517 189.068 356.354C198.046 362.186 211.294 368.976 225.379 375.007L233.919 378.641L234.956 377.483C235.515 376.804 238.388 373.529 241.38 370.174C252.513 357.512 262.888 343.413 268.314 333.588L269.472 331.471L278.45 331.511C288.505 331.551 294.451 331.271 302.391 330.432C309.095 329.753 325.375 327.437 325.894 327.117C326.373 326.798 328.767 313.937 329.884 305.629C331.001 297.441 331.799 287.935 332.158 278.749L332.398 270.96L336.827 268.564C347.481 262.772 363.362 251.629 375.612 241.444L376.809 240.445L374.894 234.734C369.587 219.117 362.285 202.661 355.501 191.078C354.584 189.56 353.865 188.083 353.865 187.763C353.865 187.483 354.544 186.125 355.422 184.767C362.205 173.824 369.347 158.606 375.812 141.272L377.089 137.797L375.772 136.638C361.886 124.456 346.005 112.953 333.834 106.243L329.924 104.086V97.8557C329.924 90.0672 329.365 80.8408 328.328 72.1736C327.37 64.2653 324.856 49.0477 324.457 48.6483C323.978 48.2489 309.614 46.0122 301.593 45.0936C293.333 44.1749 282.041 43.4959 274.42 43.4959H268.953L266.479 39.1823C262.888 33.0314 256.344 23.126 252.074 17.4544C245.61 8.86703 238.148 -0.0398254 237.43 0.000115603C237.071 0.000115603 232.642 1.59776 227.574 3.51493ZM240.064 12.4218C249.56 24.2443 257.381 35.7873 263.806 47.53L265.242 50.1661L272.225 49.9664C279.527 49.7667 290.939 50.3258 299.798 51.3244C304.626 51.8436 318.831 53.8806 319.07 54.0803C319.11 54.1202 319.669 57.3954 320.347 61.3096C322.542 74.9295 323.539 86.5124 323.539 99.1737V108.001L326.851 109.678C337.146 114.95 350.793 124.257 362.803 134.122C365.637 136.439 368.31 138.635 368.749 139.035L369.587 139.674L367.472 145.226C362.165 158.965 352.908 177.578 347.441 185.566C346.803 186.485 346.284 187.404 346.284 187.643C346.284 187.883 347.561 190.199 349.117 192.756C355.062 202.661 362.724 219.436 367.592 233.296L369.387 238.328L364.32 242.283C352.349 251.669 340.937 259.218 329.325 265.328L325.734 267.246L325.694 276.113C325.654 285.419 325.175 292.289 323.899 302.074C322.941 309.623 321.225 319.848 320.786 320.886C320.507 321.605 319.629 321.805 313.923 322.604C299.758 324.561 296.964 324.761 281.243 324.921L265.88 325.08L262.768 330.353C257.9 338.66 251.236 348.326 245.171 355.835C241.979 359.749 233.24 369.894 232.522 370.453C232.083 370.813 230.487 370.294 225.18 367.977C211.853 362.106 201.238 356.514 190.784 349.804L185.876 346.648L182.005 348.885C177.177 351.681 168.638 355.955 163.132 358.351C152.717 362.865 137.235 368.456 136.237 368.097C135.918 367.977 133.803 365.381 131.529 362.345C123.389 351.521 116.127 340.138 111.019 330.153L108.306 324.801L99.0882 324.561C89.5116 324.281 81.6508 323.602 72.553 322.244C65.8095 321.246 56.3526 319.528 55.1955 319.089C54.4373 318.81 54.2777 318.17 53.4797 311.62C51.7639 297.681 51.6042 295.444 51.6042 280.905V266.487L47.4145 264.13C41.3094 260.655 32.5309 254.784 25.2686 249.312C18.4054 244.08 7.51203 234.973 7.51203 234.454C7.51203 233.895 12.4599 222.192 15.0137 216.64C19.0837 207.933 24.1514 198.587 28.8598 191.278L30.7752 188.282L29.9771 186.884C21.1587 171.467 16.0113 160.563 10.784 145.945C9.66676 142.869 8.6692 140.073 8.50959 139.714C8.34998 139.275 9.82637 137.877 14.1757 134.522C26.6652 124.816 37.2394 117.906 48.4919 111.995L52.2028 110.038V102.848C52.2028 95.0598 52.6816 87.2314 53.5994 78.644C54.4772 70.9754 56.9911 56.1572 57.5098 55.638C57.9886 55.1986 65.5701 54.0803 76.3438 52.8421C79.8552 52.4427 86.9578 52.1631 95.4969 52.0433C105.592 51.9235 109.144 51.7238 109.383 51.3643C109.543 51.1247 110.939 48.6483 112.495 45.8924C117.763 36.5861 126.062 24.6437 133.883 15.0579C138.751 9.06673 139.749 7.94838 140.108 7.94838C140.866 7.94838 153.395 13.0608 160.378 16.2162C167.88 19.6112 177.896 24.9633 183.721 28.6778L186.794 30.6349L190.824 28.1586C197.687 23.9248 207.782 18.6925 216.202 15.0179C222.467 12.302 234.597 7.58891 235.435 7.54897C235.834 7.54897 237.749 9.54603 240.064 12.4218Z" fill="url(#paint0_linear_1_49)"/>
<path d="M230.766 19.8109C225.459 21.9278 214.885 26.5609 211.733 28.1586C205.668 31.1541 196.251 36.4663 196.251 36.8258C196.251 37.0255 196.73 37.5846 197.328 38.0639C205.508 44.4146 212.77 51.8037 219.953 60.9502C220.033 61.03 221.828 60.2712 224.023 59.3126C231.564 55.9975 242.059 53.0418 250.638 51.8037C252.553 51.564 254.109 51.1646 254.109 50.9649C254.109 50.0862 245.969 37.1453 241.38 30.7148C238.507 26.6807 232.642 19.0919 232.442 19.1718C232.402 19.1718 231.644 19.4514 230.766 19.8109ZM233.4 30.595C237.51 36.0269 244.134 46.0521 243.814 46.3317C243.655 46.4915 242.178 46.8909 240.542 47.2504C235.954 48.2888 229.689 50.1661 225.659 51.7238L221.988 53.1217L220.232 51.0048C219.274 49.8465 215.962 46.4116 212.89 43.3761C209.857 40.3006 207.503 37.6645 207.663 37.5048C208.261 36.9056 217.399 32.4722 223.185 29.9559C227.814 27.9189 230.048 26.9204 230.407 26.7606C230.447 26.7207 231.804 28.4781 233.4 30.595Z" fill="url(#paint1_linear_1_49)"/>
<path d="M139.31 24.4041C130.292 35.7873 119.359 52.4827 120.516 53.1217C120.795 53.2416 122.032 53.4812 123.229 53.641C131.728 54.7194 142.462 57.715 151.6 61.6292L153.076 62.2283L155.989 58.354C159.86 53.2815 167.84 45.0537 173.107 40.78C175.422 38.9027 177.457 37.2252 177.616 37.0654C178.055 36.7459 170.274 32.2725 162.134 28.2385C156.308 25.2828 144.058 19.9307 143.26 19.9307C143.021 19.9307 141.265 21.9677 139.31 24.4041ZM148.248 28.7178C149.724 29.3968 152.039 30.4352 153.356 31.0343C156.747 32.5122 165.645 37.0654 166.084 37.5048C166.324 37.7444 164.808 39.422 162.094 42.0181C159.7 44.2948 156.228 48.0093 154.353 50.246C152.158 52.8821 150.762 54.2401 150.363 54.1203C150.044 54.0404 148.168 53.3614 146.173 52.6824C144.218 51.9635 139.908 50.7253 136.636 49.8865C133.404 49.0478 130.651 48.2489 130.531 48.1291C130.052 47.6898 144.377 27.5195 145.176 27.5195C145.335 27.5195 146.732 28.0787 148.248 28.7178Z" fill="url(#paint2_linear_1_49)"/>
<path d="M183.602 45.2134C178.893 48.8081 171.87 55.1587 168.997 58.4339C165.845 61.9886 162.334 66.462 162.334 66.9014C162.373 67.1011 163.93 68.3392 165.845 69.6573C169.875 72.4532 178.494 80.8807 181.168 84.6352C182.165 86.0731 183.921 88.9089 185.118 90.9459L187.193 94.6604L189.507 90.2269C193.617 82.3186 199.602 75.0094 206.067 70.0168C207.743 68.7387 209.578 67.2608 210.137 66.8215L211.174 65.9428L208.82 63.0271C204.391 57.4753 195.532 49.1675 188.27 43.7755L186.834 42.737L183.602 45.2134ZM196.729 59.4324C199.523 62.1484 201.837 64.5848 201.797 64.8244C201.797 65.0641 200.6 66.2623 199.164 67.4605C196.171 69.9768 191.303 75.3689 189.028 78.7239C188.19 79.9621 187.313 81.0804 187.113 81.2003C186.913 81.3201 185.796 80.2417 184.639 78.7639C181.726 75.0094 178.255 71.4547 174.624 68.3792C172.908 66.9413 171.511 65.6233 171.511 65.4635C171.511 64.7845 178.893 57.3555 182.843 54.0404L186.834 50.7252L189.228 52.6025C190.545 53.6409 193.896 56.7164 196.729 59.4324Z" fill="url(#paint3_linear_1_49)"/>
<path d="M270.07 60.1114C270.07 60.3111 270.868 62.5079 271.826 64.9443C274.699 72.1736 276.734 79.5228 278.091 87.1914C278.49 89.548 278.849 92.0643 278.849 92.7832C278.849 93.4622 279.008 94.2211 279.168 94.4607C279.328 94.7004 281.403 95.0998 283.797 95.3794C291.937 96.298 301.114 98.5746 309.494 101.77L313.564 103.288V97.2566C313.564 91.5051 312.886 81.3601 312.008 73.6514C311.529 69.6973 310.491 63.0271 310.292 62.8674C310.052 62.6676 300.556 61.4694 294.211 60.8703C286.311 60.1114 270.07 59.5922 270.07 60.1114ZM292.216 67.0612C294.65 67.3008 298.441 67.6603 300.675 67.8999C304.586 68.3393 304.745 68.4192 304.945 69.4177C305.623 72.5331 307.18 89.0687 307.18 92.7832C307.18 94.1012 307.579 94.1412 300.915 92.264C297.204 91.2654 286.51 89.0287 285.233 89.0287C285.074 89.0287 284.675 87.7107 284.435 86.113C283.597 80.9606 280.964 70.9754 279.407 66.9413C279.168 66.2623 279.367 66.2224 283.477 66.462C285.872 66.5819 289.822 66.8615 292.216 67.0612Z" fill="url(#paint4_linear_1_49)"/>
<path d="M257.501 60.9502C252.753 61.5493 245.49 62.9472 240.981 64.1055C235.355 65.5434 226.217 68.9384 225.898 69.6972C225.818 69.9369 226.577 72.0138 227.614 74.2905C231.923 83.9562 233.52 91.1456 233.52 101.49C233.559 108.48 233.559 108.56 234.358 108.001C244.573 100.572 254.668 96.6175 266.639 95.2196L268.993 94.94L268.753 92.4636C268.155 86.153 265.481 76.1677 262.13 67.7801C259.735 61.709 259.217 60.6706 258.937 60.7105C258.818 60.7504 258.179 60.8703 257.501 60.9502ZM255.945 69.3378C258.139 74.5301 262.17 88.6692 261.611 89.2684C261.491 89.3882 259.536 89.9074 257.262 90.4267C252.513 91.5051 247.685 93.1426 243.336 95.1796C241.7 95.9385 240.223 96.4577 240.103 96.298C239.984 96.1382 239.665 94.3009 239.385 92.224C238.866 87.6308 237.51 82.1988 235.594 76.9266L234.158 73.0124L235.555 72.4132C238.986 70.9754 251.476 67.9398 254.189 67.8999C255.107 67.86 255.426 68.1395 255.945 69.3378Z" fill="url(#paint5_linear_1_49)"/>
<path d="M87.1174 62.1484C79.6158 62.5878 66.2883 63.9857 65.9292 64.3452C65.6898 64.6248 64.2134 74.2106 63.6149 79.4429C62.5774 88.4696 61.6996 105.405 62.2981 105.405C62.3779 105.405 64.3331 104.686 66.6076 103.847C74.3486 100.931 83.3267 98.6146 90.8284 97.6161C93.1028 97.3365 95.0181 97.017 95.0979 96.9371C95.1777 96.8572 95.457 95.1797 95.6965 93.2226C96.7738 84.0361 99.9261 72.4532 103.717 63.5464L104.435 61.8688L96.7738 61.9487C92.5442 61.9887 88.2347 62.0685 87.1174 62.1484ZM94.8984 68.5789C94.8984 68.7786 94.4595 70.2165 93.9008 71.8141C92.5442 75.8482 90.9082 82.5183 90.15 87.2314L89.4717 91.2255L85.9204 91.9045C80.8128 92.903 75.6255 94.1412 72.0343 95.2995C70.2786 95.8187 68.8022 96.2181 68.7224 96.0983C68.3234 95.7388 70.3584 74.9695 71.1964 71.0153C71.4358 69.8171 71.5156 69.8171 79.7355 69.0582C88.7933 68.2594 94.8984 68.0597 94.8984 68.5789Z" fill="url(#paint6_linear_1_49)"/>
<path d="M112.535 68.7387C109.662 76.0479 108.505 79.7225 107.109 85.8334C106.071 90.6264 105.233 96.2181 105.552 96.6974C105.632 96.8971 106.43 97.0169 107.268 97.0169C109.343 97.0169 114.371 97.6959 118.042 98.4947C124.227 99.8128 132.686 103.288 138.073 106.683C139.23 107.442 140.387 108.16 140.587 108.28C140.866 108.44 140.986 105.884 140.986 100.891C140.986 94.5406 141.145 92.4636 141.864 88.829C142.901 83.7166 144.218 79.5227 146.373 74.5701L147.889 71.0153L146.811 70.4961C141.265 67.7002 126.82 64.0256 117.004 62.9073L114.969 62.6676L112.535 68.7387ZM130.212 71.6943C134.721 72.8126 139.19 74.2905 139.19 74.61C139.19 74.7698 138.831 75.968 138.392 77.286C136.557 82.5982 135.559 87.3512 134.601 95.4992L134.362 97.3365L132.087 96.3379C128.217 94.6205 123.349 93.1027 118.92 92.224C116.565 91.7447 114.251 91.3054 113.772 91.1855C113.134 91.0657 112.855 90.7062 112.855 90.0272C112.855 87.7506 117.044 73.7313 118.68 70.6159L119.199 69.5375L123.508 70.3363C125.863 70.7357 128.895 71.3748 130.212 71.6943Z" fill="url(#paint7_linear_1_49)"/>
<path d="M214.207 76.3674C210.895 78.8438 205.229 84.4355 202.994 87.511C198.525 93.5021 195.133 100.931 193.457 108.2C192.659 111.835 192.62 112.274 193.138 116.388L193.697 120.782L196.45 121.261C203.393 122.459 209.538 124.217 214.765 126.573L216.721 127.452L217.439 126.533C218.676 124.936 220.511 120.103 221.748 115.31C224.621 104.206 224.103 93.1826 220.272 82.8379C218.915 79.2032 217.08 75.1292 216.681 74.8896C216.521 74.8097 215.404 75.4887 214.207 76.3674ZM215.404 88.2698C215.883 90.0273 216.441 92.5835 216.681 93.9415C217.239 97.1368 217.239 105.644 216.641 109.039C216.202 111.635 214.326 118.585 213.967 118.945C213.888 119.024 212.012 118.545 209.817 117.826C207.663 117.107 204.431 116.229 202.675 115.869L199.523 115.23L199.283 113.712C198.725 110.277 202.116 100.412 205.947 94.3808C208.181 90.7861 213.209 85.0346 214.047 85.0346C214.287 85.0346 214.925 86.4725 215.404 88.2698Z" fill="url(#paint8_linear_1_49)"/>
<path d="M155.67 78.1248C154.154 81.5997 152.478 86.9917 151.68 90.9059C150.642 96.0583 150.762 105.884 151.879 111.196C153.236 117.587 154.872 121.86 156.947 124.576C158.742 126.933 158.822 126.973 159.86 126.414C163.571 124.496 173.706 121.7 178.773 121.181C181.806 120.862 181.646 121.181 182.085 114.99C182.325 112.035 182.205 111.116 181.287 108.001C177.536 95.0598 170.713 85.4739 159.74 77.6455C158.383 76.647 157.106 75.8482 156.987 75.8482C156.827 75.8482 156.228 76.8866 155.67 78.1248ZM163.491 89.2284C168.518 94.4607 172.15 100.532 174.544 107.641C175.821 111.516 176.18 114.271 175.461 114.831C175.142 115.07 173.387 115.59 171.511 115.949C168.718 116.548 163.371 118.066 161.296 118.865C160.977 118.984 160.458 117.906 159.82 115.909C157.426 108.6 156.667 100.971 157.705 94.3009C158.383 89.7876 159.421 85.8334 159.9 85.8334C160.099 85.8334 161.695 87.3512 163.491 89.2284Z" fill="url(#paint9_linear_1_49)"/>
<path d="M267.676 105.205C267.357 105.285 265.721 105.564 264.085 105.804C255.187 107.242 247.126 110.877 239.585 116.748C233.559 121.461 226.177 130.248 226.177 132.684C226.177 132.964 227.614 134.362 229.37 135.76C233.081 138.675 237.629 143.349 240.582 147.383C241.739 148.9 242.777 150.139 242.937 150.139C243.136 150.139 244.892 148.9 246.847 147.343C259.975 137.238 267.596 123.658 269.073 107.881C269.352 104.885 269.352 104.885 267.676 105.205ZM261.691 113.433C261.691 115.709 258.658 123.498 256.104 127.812C253.99 131.406 249.64 136.638 246.568 139.275L244.134 141.431L242.258 139.275C241.221 138.116 239.066 135.88 237.47 134.362C235.874 132.804 234.557 131.326 234.557 131.047C234.557 130.727 236.592 128.451 239.066 125.974C245.091 119.903 249.919 116.788 257.7 113.952C260.573 112.913 261.691 112.754 261.691 113.433Z" fill="url(#paint10_linear_1_49)"/>
<path d="M278.889 109.878C277.771 120.622 274.06 130.807 268.035 139.634L266.04 142.59L269.152 142.27C274.26 141.751 283.477 141.951 287.428 142.709C291.458 143.468 297.842 145.346 301.274 146.783C302.551 147.303 303.748 147.742 303.947 147.742C304.905 147.742 308.935 136.279 310.531 128.97C311.569 124.257 312.766 116.668 312.766 114.911C312.766 113.992 312.287 113.712 307.698 111.875C299.518 108.64 292.416 106.683 284.794 105.604C282.52 105.285 280.365 105.005 280.046 105.005C279.527 105.005 279.328 105.964 278.889 109.878ZM290.62 113.193C293.054 113.752 297.483 115.03 300.516 116.069L306.022 117.946L305.783 119.584C304.985 124.576 303.389 131.606 302.152 135.36L300.755 139.714L299.079 139.115C294.451 137.477 288.665 136.359 280.764 135.52C279.487 135.4 278.45 135.121 278.45 134.921C278.45 134.721 278.769 133.883 279.208 133.044C281.043 129.369 283.956 119.903 284.635 115.39C284.994 112.794 285.233 112.195 285.752 112.195C286.031 112.195 288.226 112.634 290.62 113.193Z" fill="url(#paint11_linear_1_49)"/>
<path d="M105.473 109.439C106.869 122.379 112.256 133.563 121.553 142.869C123.788 145.106 126.022 147.143 126.541 147.303C127.02 147.502 128.456 148.141 129.693 148.701L131.968 149.699L133.684 147.383C136.756 143.229 140.866 138.995 144.737 135.84C146.851 134.162 148.647 132.764 148.727 132.684C148.807 132.644 148.248 131.286 147.49 129.689C146.412 127.412 145.295 125.974 142.462 123.138C132.965 113.672 121.673 108.4 108.306 107.202L105.193 106.882L105.473 109.439ZM118.999 115.829C126.022 118.146 133.524 122.899 138.472 128.091L140.746 130.448L135.12 136.159L129.454 141.871L125.823 138.116C121.633 133.763 119.079 130.248 116.685 125.415C115.049 122.14 112.855 116.069 112.855 114.751C112.855 113.992 114.012 114.192 118.999 115.829Z" fill="url(#paint12_linear_1_49)"/>
<path d="M89.9106 107.841C82.1695 109.239 71.3959 112.474 65.1711 115.19L62.8567 116.229L63.0962 119.304C63.6947 126.493 66.2085 137.517 68.9219 144.746C69.8397 147.143 70.7175 149.26 70.8771 149.42C71.0367 149.579 72.8723 148.98 74.9073 148.102C84.8829 143.828 95.6167 141.711 104.236 142.39C107.188 142.59 107.707 142.55 107.428 142.11C107.268 141.791 106.231 140.233 105.193 138.596C100.046 130.687 96.3748 120.023 95.457 110.277L95.1777 107.402L93.5417 107.442C92.6639 107.481 91.0279 107.641 89.9106 107.841ZM90.1101 117.467C90.7885 121.541 93.1028 128.97 94.7388 132.525C95.4969 134.122 96.0955 135.6 96.0955 135.76C96.0955 135.919 95.058 136.199 93.821 136.319C88.6337 136.918 82.2094 138.436 77.4211 140.193C76.264 140.593 75.0669 140.952 74.7876 140.952C73.9097 140.952 71.5156 132.245 70.3185 124.856C69.72 121.101 69.6801 120.462 70.1988 120.143C72.1141 118.945 86.479 114.631 88.7534 114.591C89.4717 114.591 89.6313 114.95 90.1101 117.467Z" fill="url(#paint13_linear_1_49)"/>
<path d="M322.143 121.061C321.026 129.729 318.512 139.314 315.28 147.502C313.285 152.535 313.125 153.094 313.763 153.414C314.123 153.653 316.277 155.171 318.472 156.849C323.779 160.843 330.722 167.633 335.71 173.664C337.904 176.34 339.78 178.497 339.9 178.497C340.817 178.497 352.229 156.17 355.701 147.582L357.616 142.869L356.22 141.671C352.588 138.556 339.74 129.209 335.031 126.174C329.764 122.859 323.18 119.024 322.662 118.984C322.542 118.984 322.303 119.943 322.143 121.061ZM329.246 130.008C334.513 133.283 343.61 139.754 349.037 144.067L349.955 144.826L348.08 149.18C346.084 153.773 340.099 165.955 339.421 166.794C339.141 167.153 337.585 165.835 333.595 161.801C330.562 158.766 326.572 155.051 324.657 153.573C322.702 152.056 321.145 150.698 321.145 150.578C321.145 150.458 321.864 148.261 322.781 145.745C324.377 141.232 327.131 131.047 327.131 129.689C327.131 128.77 327.25 128.77 329.246 130.008Z" fill="url(#paint14_linear_1_49)"/>
<path d="M47.7736 123.817C39.9926 128.291 27.0243 137.038 20.3207 142.39C20.0813 142.59 22.4356 148.741 25.3883 155.73C28.1017 162.081 34.0073 174.023 36.0822 177.378L37.2793 179.296L40.4316 175.421C45.978 168.711 54.3974 160.803 61.1808 155.93L62.2981 155.131L60.4626 150.538C57.1507 142.23 54.4373 131.726 53.5595 123.857C53.3999 122.499 53.1604 121.301 53.0008 121.181C52.8412 121.101 50.487 122.26 47.7736 123.817ZM49.2101 135.959C49.8086 138.596 51.2052 143.508 52.3225 146.903L54.3575 153.054L53.36 153.813C50.0082 156.489 45.4992 160.603 42.1075 164.078L38.1571 168.072L35.0846 161.602C32.4511 156.13 27.8623 145.425 27.8623 144.786C27.8623 144.147 47.6938 130.687 48.0529 131.087C48.0928 131.127 48.6116 133.323 49.2101 135.959Z" fill="url(#paint15_linear_1_49)"/>
<path d="M182.085 131.007C162.772 132.644 145.175 144.587 136.477 161.961C134.402 166.115 132.167 172.745 131.329 177.418C130.292 183.01 130.412 193.035 131.569 198.467C133.205 206.216 135.679 212.247 139.709 218.358C148.208 231.259 160.777 239.846 175.9 243.081C180.729 244.12 193.418 244.12 198.246 243.081C222.267 237.929 239.625 219.396 243.296 194.992C243.894 191.038 243.814 183.409 243.176 179.096C239.625 155.93 222.666 137.517 200.041 132.245C196.809 131.486 188.51 130.488 186.475 130.647C186.036 130.647 184.08 130.807 182.085 131.007ZM191.861 137.357C202.515 138.436 211.653 142.31 219.793 149.18C222.706 151.616 226.696 156.01 228.252 158.486L229.011 159.684L226.816 158.886C223.305 157.687 221.03 158.047 218.037 160.324L216.242 161.682L215.763 160.204C213.05 151.856 205.149 146.823 196.69 148.181C193.697 148.661 192.061 149.3 189.587 150.937C187.831 152.136 187.831 152.136 186.754 151.377C181.287 147.542 174.823 146.903 168.917 149.699C164.608 151.696 161.575 155.131 160.099 159.645L159.421 161.761L158.383 160.803C156.827 159.325 154.912 158.486 152.557 158.247C149.764 157.967 147.969 158.326 146.173 159.525C144.537 160.643 144.577 160.523 146.971 157.128C151.64 150.498 160.977 143.468 169.356 140.313C176.619 137.597 184.24 136.599 191.861 137.357ZM181.407 155.61C183.043 156.369 184.559 157.807 188.589 162.241C196.45 170.908 196.809 171.187 200.241 170.908C204.51 170.588 207.264 165.156 204.909 161.682C202.356 157.887 197.368 157.408 194.216 160.763C193.178 161.881 192.021 162.001 190.984 161.042C189.986 160.164 190.066 159.205 191.263 157.767C192.979 155.77 196.251 154.412 199.363 154.412C205.388 154.412 209.778 158.766 209.817 164.717C209.817 170.948 204.311 175.901 198.206 175.182C194.535 174.742 193.617 173.983 184.559 163.998C182.604 161.841 180.33 159.764 179.452 159.325C176.539 157.807 172.828 158.646 170.913 161.242C169.755 162.8 169.795 166.674 170.992 168.352C172.15 169.949 174.304 170.988 176.499 170.988C178.414 170.988 179.571 170.508 181.128 169.031C183.442 166.874 186.275 169.111 184.4 171.627C183.362 173.025 179.811 174.822 177.457 175.142C173.307 175.701 168.638 173.065 166.683 169.031C165.645 166.914 165.526 163.039 166.404 160.923C168.838 155.131 175.422 152.775 181.407 155.61ZM142.781 165.116C142.263 167.273 142.303 181.013 142.781 185.367C143.5 191.478 144.697 194.513 148.208 198.867C149.884 200.944 152.917 204.378 154.952 206.455L158.663 210.25L158.822 214.044C158.942 217.279 159.141 218.158 160.099 219.876C160.698 221.034 161.895 222.592 162.693 223.39L164.169 224.828L174.863 225.068C183.043 225.268 185.637 225.228 185.876 224.868C186.036 224.589 186.195 222.312 186.235 219.756C186.275 217.2 186.554 214.044 186.874 212.686C187.193 211.328 187.472 208.293 187.472 205.936C187.472 201.023 186.714 198.148 184.519 194.713C183.322 192.836 179.372 188.881 178.733 188.881C178.494 188.881 172.708 181.892 172.708 181.612C172.708 181.532 174.264 181.492 176.22 181.492C180.25 181.492 182.883 180.733 185.916 178.656C187.033 177.898 188.031 177.298 188.111 177.298C188.19 177.298 189.068 177.898 190.026 178.656C192.62 180.614 195.413 181.452 199.523 181.492C201.677 181.492 202.874 181.652 202.715 181.892C201.757 183.529 197.767 187.963 195.133 190.399C189.906 195.072 188.071 199.266 188.15 206.256C188.15 208.452 188.39 211.049 188.669 212.047C188.948 213.046 189.268 216.361 189.427 219.436L189.667 225.028L200.64 224.948L211.613 224.828L213.289 223.031C215.883 220.235 216.761 217.998 216.84 214.244C216.84 212.487 216.92 210.849 216.92 210.609C216.96 210.37 218.835 208.293 221.11 206.016C231.485 195.512 232.921 192.196 233.001 178.297C233.041 173.903 233.16 169.75 233.32 169.111C233.559 168.032 233.719 168.312 234.836 171.707C236.831 177.698 237.51 182.491 237.23 189.041C236.871 197.549 235.395 203.22 231.644 210.609C220.631 232.217 195.173 242.762 171.87 235.373C162.334 232.377 153.874 226.466 147.769 218.637C137.794 205.736 134.442 189.76 138.552 174.423C139.629 170.469 142.662 163.039 143.021 163.439C143.101 163.479 142.981 164.238 142.781 165.116ZM152.358 165.316C153.475 165.915 153.914 167.992 154.553 175.741C154.952 180.933 155.351 183.33 155.949 184.927C157.146 187.883 160.698 193.195 162.972 195.272C164.768 196.91 164.887 196.949 165.406 196.231C165.685 195.831 165.845 195.272 165.765 194.992C165.645 194.753 163.85 191.917 161.775 188.682C159.66 185.486 157.944 182.571 157.944 182.251C157.944 181.333 159.78 179.695 160.857 179.695C162.254 179.695 164.728 182.011 169.436 187.803C171.751 190.639 174.624 193.714 175.781 194.673C179.691 197.708 181.128 200.784 181.128 205.896C181.128 207.654 180.848 210.33 180.529 211.808C180.17 213.285 179.891 215.482 179.891 216.68V218.837H176.379C174.424 218.837 171.431 218.717 169.716 218.558C166.803 218.318 166.603 218.238 165.885 217.08C165.286 216.081 165.127 215.043 165.127 212.127C165.127 207.614 165.127 207.654 159.341 201.662C149.485 191.478 148.767 189.64 148.767 175.102C148.767 167.513 148.807 166.954 149.605 165.955C150.483 164.837 151.161 164.677 152.358 165.316ZM226.018 165.755C226.736 166.554 226.776 167.233 226.656 176.26C226.457 190.878 226.217 191.478 215.962 202.102C213.528 204.658 211.214 207.294 210.855 207.933C210.376 208.892 210.296 209.89 210.456 212.327C210.616 214.843 210.536 215.722 209.937 216.84C209.259 218.158 209.059 218.238 206.825 218.478C205.508 218.637 202.515 218.757 200.161 218.797L195.852 218.837V216.88C195.852 215.762 195.572 213.685 195.213 212.167C193.338 204.378 195.054 197.988 199.882 194.633C200.8 193.994 203.473 191.158 205.827 188.282C212.651 180.014 214.486 178.656 216.521 180.374C218.237 181.892 218.037 182.451 213.808 188.841C211.613 192.157 209.817 195.152 209.817 195.432C209.817 195.711 210.057 196.191 210.376 196.43C211.094 197.029 213.05 195.392 215.643 191.957C219.713 186.525 220.591 183.729 221.19 174.503C221.309 172.426 221.629 169.75 221.828 168.591C222.506 165.236 224.382 163.958 226.018 165.755ZM157.505 170.948C157.665 172.266 158.224 173.744 158.862 174.702C159.461 175.581 159.939 176.699 159.939 177.179C159.939 178.177 158.264 179.495 157.426 179.176C156.228 178.736 155.111 171.267 155.829 168.591C156.228 167.074 157.146 168.392 157.505 170.948ZM220.072 172.705C219.793 175.741 218.716 179.296 218.077 179.296C217.12 179.296 215.803 178.057 215.803 177.179C215.803 176.699 216.361 175.501 217 174.503C217.838 173.264 218.197 172.226 218.197 171.108C218.197 170.229 218.516 169.071 218.875 168.511L219.554 167.553L219.913 168.911C220.112 169.67 220.192 171.387 220.072 172.705ZM161.336 173.384C161.496 174.343 161.895 175.461 162.214 175.98C162.733 176.779 162.693 176.899 161.974 177.298C161.256 177.658 161.057 177.578 160.737 176.699C160.219 175.381 160.219 171.707 160.698 171.707C160.897 171.707 161.176 172.466 161.336 173.384ZM215.204 174.622C214.885 177.578 214.765 177.818 213.808 177.298C213.129 176.939 213.089 176.779 213.608 175.781C213.927 175.182 214.287 174.023 214.406 173.185C214.805 170.588 215.524 171.906 215.204 174.622Z" fill="url(#paint16_linear_1_49)"/>
<path d="M272.464 151.976C264.364 152.974 257.421 154.892 251.236 157.807L247.765 159.445L248.403 160.883C250.518 165.676 252.713 173.943 253.511 180.214L253.75 182.131L255.825 181.892C272.664 180.014 284.236 174.383 294.331 163.199C295.568 161.801 297.204 159.804 297.922 158.766L299.279 156.929L297.124 155.97C294.291 154.732 290.221 153.534 286.071 152.775C282.639 152.136 274.938 151.696 272.464 151.976ZM285.353 159.085C286.829 159.365 288.186 159.724 288.346 159.924C289.104 160.683 280.006 167.753 275.058 170.229C270.868 172.306 260.135 175.461 259.456 174.782C259.376 174.702 258.658 172.306 257.94 169.47C257.182 166.634 256.463 163.958 256.304 163.479C256.064 162.76 256.344 162.52 258.179 161.801C261.212 160.563 267.477 158.965 270.908 158.526C274.499 158.087 281.642 158.366 285.353 159.085Z" fill="url(#paint17_linear_1_49)"/>
<path d="M92.1052 153.174C86.6785 154.173 76.1443 157.927 76.1443 158.886C76.1443 159.724 81.0523 165.716 84.1647 168.711C91.5865 175.861 99.8463 180.254 110.341 182.651C114.929 183.729 116.406 183.849 118.92 183.449C120.236 183.21 120.436 183.01 120.596 181.932C121.753 173.384 123.03 167.912 125.184 162.6C125.623 161.442 126.022 160.284 125.982 160.004C125.982 159.205 121.274 156.09 118.88 155.251C113.613 153.454 109.662 152.815 102.48 152.695C97.4123 152.615 94.5792 152.735 92.1052 153.174ZM112.655 160.084C116.964 161.242 118.441 161.721 118.441 162.041C118.441 162.201 118.002 163.639 117.443 165.276C116.885 166.914 116.047 170.189 115.528 172.585L114.65 176.979L112.894 176.739C110.42 176.42 103.438 173.983 100.205 172.346C95.2974 169.909 89.7909 165.795 87.1573 162.6L86.1199 161.402L88.1549 160.723C92.3447 159.325 95.6965 158.926 102.679 159.085C107.907 159.205 110.181 159.445 112.655 160.084Z" fill="url(#paint18_linear_1_49)"/>
<path d="M305.783 164.997C302.83 169.111 296.885 175.341 293.134 178.177C289.463 181.013 284.435 184.048 281.083 185.526C279.607 186.165 278.45 186.764 278.45 186.884C278.45 187.004 279.846 187.683 281.562 188.402C285.473 190 290.899 193.115 294.77 195.991C298.561 198.787 304.745 204.978 307.539 208.732C308.736 210.33 309.853 211.648 310.052 211.648C310.93 211.648 317.634 205.976 322.143 201.423C326.931 196.63 333.515 188.642 333.515 187.643C333.515 186.924 328.607 180.574 324.657 176.26C319.908 171.028 314.482 166.195 309.334 162.6L308.097 161.761L305.783 164.997ZM313.205 173.824C317.873 177.898 325.535 186.525 325.535 187.683C325.535 188.841 312.167 202.941 311.21 202.821C311.09 202.821 310.092 201.742 308.975 200.424C306.302 197.229 300.556 192.196 296.326 189.241C294.371 187.923 292.815 186.725 292.815 186.565C292.854 186.405 294.131 185.367 295.688 184.288C299.119 181.852 304.666 176.659 307.379 173.344C308.496 172.026 309.494 170.908 309.614 170.908C309.773 170.908 311.369 172.226 313.205 173.824Z" fill="url(#paint19_linear_1_49)"/>
<path d="M64.2932 166.155C58.1482 170.788 50.6067 178.457 45.2598 185.486L42.9853 188.442L44.6612 190.759C50.1279 198.228 59.1857 207.853 64.8519 212.167L67.3258 214.044L68.6027 212.167C74.8275 202.981 84.1647 194.713 92.9831 190.559C94.6989 189.72 96.0955 189.001 96.0955 188.881C96.0955 188.762 94.659 187.963 92.9033 187.124C84.0449 182.89 74.628 174.702 69.0416 166.434C68.3234 165.396 67.6051 164.437 67.4056 164.318C67.2061 164.198 65.8095 165.037 64.2932 166.155ZM68.9219 176.619C72.1939 180.294 76.5832 184.288 80.0547 186.764C81.4114 187.763 82.5287 188.682 82.5287 188.881C82.5287 189.041 81.2119 190.12 79.6557 191.318C76.663 193.514 69.7599 200.145 67.3258 203.14L65.9691 204.858L62.8966 202.062C60.0636 199.466 55.4349 194.313 52.2427 190.159L50.9259 188.482L53.759 185.127C57.1108 181.173 65.2908 173.185 65.7696 173.384C65.9691 173.464 67.4056 174.902 68.9219 176.619Z" fill="url(#paint20_linear_1_49)"/>
<path d="M253.511 194.353C252.553 201.623 250.877 208.133 248.523 213.605C247.366 216.201 247.206 216.041 253.431 218.677C261.571 222.112 271.586 223.99 279.048 223.43C285.872 222.911 294.171 220.794 299.319 218.198L301.234 217.2L299.957 215.322C298.002 212.447 290.181 204.898 286.829 202.661C278.929 197.429 268.793 193.834 259.496 193.075C257.98 192.955 256.025 192.756 255.226 192.676L253.75 192.476L253.511 194.353ZM268.554 201.223C274.42 202.861 279.527 205.297 284.236 208.692C287.308 210.889 291.099 214.284 290.78 214.603C290.301 215.083 284.076 216.481 280.445 216.88C276.335 217.359 272.584 217.16 267.277 216.201C263.007 215.442 256.503 213.365 256.264 212.686C256.144 212.407 256.623 210.29 257.262 208.013C257.9 205.736 258.658 202.861 258.898 201.623L259.336 199.386L262.409 199.865C264.125 200.145 266.878 200.744 268.554 201.223Z" fill="url(#paint21_linear_1_49)"/>
<path d="M111.059 194.713C99.2079 197.229 87.7559 204.219 80.0547 213.645C78.0995 216.041 76.1443 218.877 76.1443 219.276C76.1443 219.556 77.6605 220.235 82.5286 222.112C93.5417 226.306 107.268 226.546 118.361 222.711C121.513 221.633 127.259 217.719 127.06 216.84C126.98 216.521 126.262 214.723 125.464 212.846C123.628 208.373 122.152 203.18 121.354 198.387C120.715 194.633 120.675 194.553 119.518 194.313C117.603 193.914 114.052 194.114 111.059 194.713ZM115.807 203.699C116.206 205.497 117.124 208.732 117.882 210.929C118.96 213.964 119.159 215.043 118.84 215.442C118.6 215.762 117.284 216.361 115.927 216.8C109.144 218.997 101.083 219.716 94.6989 218.677C90.15 217.918 86.1199 216.88 86.1199 216.441C86.1199 215.921 91.8658 210.649 94.4994 208.772C98.0108 206.296 101.602 204.418 105.872 202.941C109.024 201.822 113.453 200.584 114.69 200.504C114.929 200.464 115.408 201.942 115.807 203.699Z" fill="url(#paint22_linear_1_49)"/>
<path d="M335.989 201.143C331.6 206.455 323.539 214.324 319.07 217.679C317.235 219.037 315.599 220.315 315.399 220.475C315.2 220.634 315.719 222.312 316.557 224.309C320.267 232.936 323.42 244.719 324.537 254.065L324.776 256.382L326.053 255.743C333.395 251.988 350.992 240.325 357.417 234.973C357.856 234.614 351.272 218.837 347.481 211.049C344.608 205.177 340.658 197.948 339.9 197.149C339.74 196.949 337.984 198.787 335.989 201.143ZM341.815 213.924C344.728 220.075 346.882 224.908 348.479 229.022C348.997 230.34 349.516 231.698 349.676 232.098C349.875 232.577 348.758 233.575 344.608 236.531C338.623 240.805 330.602 245.997 329.964 245.997C329.724 245.997 329.525 245.638 329.525 245.198C329.525 243.68 326.373 232.138 324.776 227.784C323.859 225.348 323.14 223.151 323.14 222.951C323.14 222.751 324.457 221.553 326.053 220.275C327.61 218.957 331.081 215.722 333.715 213.006C336.348 210.33 338.623 208.093 338.742 208.093C338.862 208.053 340.259 210.689 341.815 213.924Z" fill="url(#paint23_linear_1_49)"/>
<path d="M33.3688 203.14C28.2613 211.967 19.2035 230.66 19.5626 231.658C19.9616 232.617 34.6856 244.04 41.0301 248.274C45.3795 251.189 52.6417 255.663 52.8013 255.503C52.8811 255.423 53.3201 253.226 53.7989 250.59C55.3551 241.923 58.2281 232.257 61.0212 226.066C61.6597 224.669 62.1784 223.311 62.1784 223.071C62.1385 222.831 60.6621 221.553 58.9064 220.235C54.6368 217.12 44.8208 207.334 40.8306 202.262C39.1148 200.065 37.5187 198.028 37.2394 197.748C36.8802 197.349 36.0423 198.587 33.3688 203.14ZM41.4291 212.686C44.342 215.961 51.0855 222.352 53.5595 224.149C54.4772 224.828 54.4373 224.868 52.0831 231.738C51.0855 234.574 49.8884 238.608 49.4096 240.725C48.8909 242.842 48.3722 244.719 48.2125 244.919C47.8135 245.398 34.4462 235.932 28.1815 230.74L27.1041 229.821L28.4209 226.825C31.2939 220.315 37.2394 208.852 37.7581 208.852C37.9177 208.852 39.5537 210.569 41.4291 212.686Z" fill="url(#paint24_linear_1_49)"/>
<path d="M240.502 227.544C237.869 231.179 233.839 235.453 229.809 238.768C227.614 240.605 225.778 242.203 225.778 242.322C225.778 242.402 226.896 244.04 228.252 245.917C233.16 252.747 240.862 259.897 247.126 263.411C252.753 266.527 260.254 269.043 266.08 269.762C267.277 269.882 268.594 270.121 268.993 270.201C269.871 270.481 269.871 269.323 269.073 264.53C266.479 249.791 258.139 237.37 243.894 227.105L241.859 225.667L240.502 227.544ZM249.002 239.686C253.112 243.8 255.905 247.635 258.299 252.388C259.975 255.783 262.249 261.934 261.93 262.253C261.611 262.613 257.102 261.095 253.75 259.537C251.915 258.698 248.882 256.941 246.967 255.703C243.615 253.466 237.789 248.034 235.555 245.078L234.437 243.561L238.787 239.087L243.136 234.614L244.293 235.373C244.932 235.812 247.046 237.769 249.002 239.686Z" fill="url(#paint25_linear_1_49)"/>
<path d="M301.713 228.064C291.338 232.537 280.684 234.294 270.31 233.256C267.716 232.976 265.521 232.816 265.442 232.936C265.362 233.016 265.96 233.975 266.798 235.053C270.868 240.285 274.38 246.916 276.654 253.666C277.931 257.54 279.487 265.009 279.727 268.564L279.846 270.161L282.24 270.042C285.393 269.922 291.338 268.923 296.007 267.765C303.748 265.808 315.16 261.494 315.16 260.536C315.16 257.061 312.806 244.559 310.97 238.248C309.973 234.814 306.94 226.905 306.421 226.386C306.302 226.226 304.147 226.985 301.713 228.064ZM304.147 237.889C305.982 243.601 308.736 256.541 308.217 257.101C308.097 257.181 305.623 258.059 302.71 259.058C296.406 261.175 290.181 262.732 287.468 262.852L285.512 262.972L284.794 259.577C283.677 253.825 282.081 249.152 279.088 242.682C278.49 241.364 278.051 240.285 278.131 240.206C278.21 240.126 280.245 239.846 282.639 239.606C285.074 239.367 288.745 238.808 290.819 238.328C294.371 237.569 301.035 235.493 301.513 235.013C301.633 234.893 302.032 234.814 302.431 234.814C302.95 234.814 303.389 235.612 304.147 237.889Z" fill="url(#paint26_linear_1_49)"/>
<path d="M129.294 229.342C126.022 230.819 125.144 231.458 121.872 234.734C112.495 244.08 107.308 255.144 105.911 268.604L105.632 271L108.864 270.681C120.995 269.522 132.048 263.811 141.465 253.825C144.377 250.75 149.964 243.76 149.964 243.161C149.964 243.041 148.886 242.203 147.53 241.244C144.577 239.167 137.395 232.297 135.32 229.581C134.522 228.503 133.644 227.624 133.404 227.664C133.205 227.664 131.329 228.423 129.294 229.342ZM136.477 240.126L141.145 244.679L138.272 247.794C136.716 249.552 134.601 251.669 133.644 252.547C131.21 254.864 125.823 258.658 123.109 260.016C120.396 261.414 113.692 263.731 113.333 263.411C112.894 262.932 114.969 256.422 116.805 252.587C117.882 250.391 119.638 247.315 120.755 245.797C124.546 240.485 129.534 235.612 131.17 235.612C131.529 235.612 133.923 237.649 136.477 240.126Z" fill="url(#paint27_linear_1_49)"/>
<path d="M70.6377 229.102C68.2037 233.855 64.8519 245.318 63.3755 253.865C62.2183 260.855 62.1784 260.615 64.8918 261.814C74.4285 266.127 85.8805 269.522 93.9807 270.481L95.6167 270.681L95.896 267.805C96.295 263.331 97.9709 255.623 99.3276 251.749C100.804 247.555 103.477 242.043 105.912 238.288C106.869 236.811 107.667 235.532 107.667 235.493C107.667 235.453 104.555 235.413 100.764 235.373C93.6614 235.373 89.6313 234.853 83.9252 233.176C80.6133 232.217 75.3462 230.22 73.2713 229.182C71.4358 228.263 71.0767 228.223 70.6377 229.102ZM79.3365 238.408C82.1695 239.367 86.2795 240.365 89.4318 240.845C92.3048 241.284 95.0979 241.763 95.5369 241.843C96.3748 242.003 96.3748 242.083 94.8585 245.638C93.023 249.871 91.5865 254.544 90.6289 259.577C90.1899 262.013 89.7909 263.172 89.3919 263.172C87.0376 263.172 71.0368 258.019 69.6402 256.781C69.2012 256.422 71.1565 247.075 72.7925 241.723C73.5506 239.247 74.1491 237.13 74.1491 237.01C74.1491 236.691 74.3487 236.731 79.3365 238.408Z" fill="url(#paint28_linear_1_49)"/>
<path d="M213.808 248.673C209.379 250.71 202.436 252.747 197.647 253.386C193.936 253.865 194.136 253.666 194.415 257.141C195.692 271.16 201.199 283.542 210.216 292.688C213.169 295.684 217.798 299.518 218.476 299.518C218.995 299.518 221.589 292.568 222.506 288.734C224.941 278.629 224.422 268.564 220.99 257.979C219.474 253.346 216.92 247.595 216.401 247.635C216.202 247.635 215.005 248.114 213.808 248.673ZM214.765 259.457C217.838 268.923 218.476 276.991 216.761 285.539C216.401 287.176 216.002 288.694 215.843 288.854C215.643 289.054 214.566 288.135 213.409 286.857C209.458 282.463 205.907 276.552 203.912 270.96C202.755 267.765 200.999 259.857 201.358 259.497C201.518 259.337 203.154 258.858 205.029 258.419C206.905 257.979 209.418 257.26 210.616 256.821C211.813 256.382 213.01 256.022 213.209 256.022C213.449 255.982 214.167 257.54 214.765 259.457Z" fill="url(#paint29_linear_1_49)"/>
<path d="M158.423 251.269C151.72 263.092 150.283 280.386 154.832 294.725C155.51 296.802 156.388 299.199 156.827 300.037L157.585 301.595L158.663 300.876C166.643 295.804 174.105 287.376 178.135 278.869C181.128 272.558 183.881 261.534 183.881 255.942V253.985H181.846C177.097 253.985 167.641 252.108 162.453 250.191C161.017 249.632 159.78 249.192 159.74 249.192C159.66 249.192 159.062 250.151 158.423 251.269ZM165.845 257.979C167.401 258.379 170.593 259.058 172.908 259.417L177.097 260.096L176.858 261.534C175.062 272.278 170.154 282.104 162.972 289.293C160.698 291.57 160.578 291.65 160.259 290.731C158.782 286.697 158.104 274.874 159.062 269.163C159.62 265.928 162.254 257.181 162.653 257.181C162.812 257.181 164.249 257.54 165.845 257.979Z" fill="url(#paint30_linear_1_49)"/>
<path d="M233.52 267.206C233.639 267.725 233.879 270.521 234.038 273.437C234.517 283.941 232.722 292.568 227.534 304.551C227.335 305.03 228.013 305.349 232.921 307.386C239.665 310.102 250.638 312.938 257.581 313.737L260.095 314.017L261.132 311.66C264.803 303.392 267.596 294.446 268.873 287.017C270.03 280.107 270.11 280.466 267.397 280.147C256.384 278.829 245.171 274.715 237.191 268.963C233.081 266.008 233.2 266.087 233.52 267.206ZM243.016 279.787C247.366 281.984 254.668 284.34 261.411 285.738C262.01 285.858 262.489 286.218 262.489 286.537C262.489 288.894 257.262 305.709 256.184 306.787C255.426 307.546 238.627 303.273 236.113 301.675C235.954 301.595 236.432 299.638 237.191 297.321C238.467 293.407 239.824 286.377 240.383 281.025C240.503 279.787 240.702 278.749 240.782 278.749C240.902 278.749 241.899 279.228 243.016 279.787Z" fill="url(#paint31_linear_1_49)"/>
<path d="M138.392 271C131.449 275.753 120.556 279.627 111.458 280.546C110.141 280.666 108.346 280.866 107.428 280.985L105.832 281.185L106.151 284.261C106.63 288.814 108.306 296.522 109.942 301.595C111.657 307.147 114.411 314.296 114.77 314.296C116.166 314.296 125.943 312.938 129.334 312.299C136.437 310.941 148.368 307.107 148.368 306.228C148.368 306.028 147.809 304.551 147.131 302.993C142.941 293.487 140.786 282.104 141.385 273.037C141.544 270.92 141.504 269.163 141.345 269.203C141.145 269.203 139.829 270.002 138.392 271ZM135.359 283.622C135.798 288.135 137.115 294.046 138.631 298.639C139.39 300.916 139.988 302.873 139.908 302.953C139.829 302.993 137.794 303.632 135.399 304.311C131.688 305.349 128.456 305.988 120.157 307.346C119.199 307.466 118.8 307.346 118.521 306.827C117.164 304.271 113.254 290.212 113.254 287.895C113.254 286.857 113.373 286.817 117.164 286.138C121.234 285.379 129.254 282.943 132.606 281.385C133.723 280.866 134.721 280.506 134.841 280.586C135 280.666 135.24 282.024 135.359 283.622Z" fill="url(#paint32_linear_1_49)"/>
<path d="M61.3804 280.426C61.3804 288.814 62.0587 299.997 62.9365 306.707C63.176 308.345 63.3755 309.903 63.3755 310.142C63.3755 311.301 84.1248 313.937 97.4522 314.536C103.557 314.815 103.797 314.776 103.557 314.057C103.438 313.657 102.44 310.702 101.363 307.506C99.0084 300.636 97.1729 292.808 96.295 285.938C95.9359 283.182 95.6167 280.906 95.5768 280.866C95.5369 280.826 93.9807 280.626 92.1052 280.346C84.3243 279.308 72.6727 276.073 65.2509 272.917C63.5351 272.158 61.939 271.559 61.7395 271.559C61.54 271.559 61.3804 275.354 61.3804 280.426ZM77.3413 283.821C79.4163 284.38 83.0873 285.219 85.5213 285.698L89.9106 286.577L90.3495 289.732C90.9082 293.567 92.7038 301.595 93.7412 304.91C94.1403 306.228 94.4994 307.466 94.4994 307.666C94.4994 308.625 70.3584 305.909 69.3608 304.87C68.882 304.351 68.1638 296.203 67.8845 288.055L67.645 280.746L70.5978 281.744C72.2338 282.303 75.2664 283.222 77.3413 283.821Z" fill="url(#paint33_linear_1_49)"/>
<path d="M312.566 272.997C309.055 274.475 299.598 277.351 294.929 278.349C292.695 278.829 288.385 279.508 285.353 279.907L279.886 280.586L279.367 284.78C278.33 292.808 275.417 303.672 272.265 311.221C271.507 313.018 270.868 314.616 270.868 314.776C270.868 315.215 287.627 315.175 294.012 314.696C299.438 314.296 309.254 313.258 311.21 312.858C312.087 312.699 312.287 312.379 312.487 310.981C312.646 310.062 313.125 306.867 313.564 303.912C314.003 300.956 314.601 295.564 314.96 291.929C315.599 285.099 315.798 271.959 315.28 271.959C315.08 271.999 313.883 272.438 312.566 272.997ZM309.015 285.818C308.736 290.811 307.978 298.4 307.179 303.792L306.701 307.027L305.025 307.267C300.915 307.866 289.383 308.704 284.954 308.704H280.086L280.884 306.388C282.44 301.954 284.315 294.166 285.393 287.855C285.632 286.457 285.752 286.377 287.547 286.138C291.657 285.579 301.194 283.502 304.785 282.383C306.86 281.744 308.736 281.185 308.935 281.185C309.135 281.145 309.175 283.102 309.015 285.818Z" fill="url(#paint34_linear_1_49)"/>
<path d="M188.43 280.386C184.559 290.212 175.741 301.236 166.643 307.626L162.733 310.382L164.049 312.179C166.563 315.734 172.708 322.644 176.379 325.999C180.409 329.713 185.876 334.267 186.315 334.267C186.714 334.267 192.34 330.193 195.652 327.517C200.281 323.802 206.545 317.531 210.097 313.098C211.892 310.821 213.409 308.824 213.409 308.665C213.409 308.545 212.291 307.626 210.935 306.707C207.144 304.071 198.804 295.484 195.931 291.25C194.535 289.213 192.46 285.539 191.263 283.062L189.108 278.629L188.43 280.386ZM191.901 296.602C193.258 298.559 196.61 302.314 199.323 304.99C202.037 307.666 204.231 309.983 204.231 310.142C204.231 311.101 194.774 320.168 189.587 324.162C186.115 326.798 186.794 327.037 180.369 320.887C174.663 315.415 171.631 311.94 172.229 311.54C172.509 311.381 174.224 309.903 176.14 308.265C180.05 304.91 183.761 300.716 186.953 296.203C188.15 294.525 189.188 293.127 189.268 293.127C189.308 293.127 190.505 294.685 191.901 296.602Z" fill="url(#paint35_linear_1_49)"/>
<path d="M219.314 317.611C214.326 324.401 205.588 332.909 197.567 338.78C196.41 339.619 195.453 340.498 195.453 340.657C195.453 341.097 206.266 347.567 212.012 350.643C217 353.279 228.492 358.631 229.21 358.631C230.327 358.631 242.657 343.094 248.403 334.466C251.396 329.913 255.027 323.882 254.867 323.722C254.788 323.642 252.274 323.123 249.281 322.524C240.582 320.847 230.208 317.571 224.621 314.696C223.743 314.256 222.786 313.897 222.506 313.937C222.227 313.937 220.791 315.614 219.314 317.611ZM229.13 323.483C233.16 325.04 242.857 327.876 244.014 327.876C244.293 327.876 244.533 328.076 244.533 328.316C244.533 329.314 233.998 343.733 228.572 350.203L227.774 351.162L223.903 349.404C219.474 347.407 207.902 341.256 207.064 340.458C206.625 340.018 206.745 339.699 208.062 338.58C213.09 334.267 218.516 328.755 222.347 324.162C223.424 322.924 224.422 321.885 224.542 321.885C224.701 321.885 226.776 322.604 229.13 323.483Z" fill="url(#paint36_linear_1_49)"/>
<path d="M151.041 316.333C144.018 319.329 133.803 321.965 124.227 323.283C121.593 323.642 119.359 324.002 119.279 324.122C119.079 324.321 123.908 332.989 127.1 338.221C129.374 341.895 137.035 353.079 139.11 355.755L139.829 356.674L143.579 355.276C153.994 351.521 165.207 346.609 172.549 342.614L177.177 340.098L174.823 338.141C170.075 334.067 160.019 323.563 156.987 319.489C155.271 317.172 153.834 315.255 153.794 315.215C153.794 315.175 152.518 315.694 151.041 316.333ZM154.193 326.358C155.67 328.196 158.942 331.75 161.416 334.307L165.965 338.94L161.057 341.216C154.712 344.212 142.462 349.125 142.023 348.885C141.544 348.566 134.801 338.58 131.848 333.708C129.933 330.632 129.334 329.274 129.653 329.034C129.933 328.875 130.97 328.635 131.968 328.475C135.08 328.036 143.18 325.919 147.171 324.521C149.246 323.762 151.081 323.163 151.241 323.123C151.36 323.123 152.717 324.561 154.193 326.358Z" fill="url(#paint37_linear_1_49)"/>
<defs>
<linearGradient id="paint0_linear_1_49" x1="188.544" y1="0" x2="188.544" y2="378.641" gradientUnits="userSpaceOnUse">
<stop stop-color="#C27AFF"/>
<stop offset="1" stop-color="#241D29"/>
</linearGradient>
<linearGradient id="paint1_linear_1_49" x1="225.18" y1="19.1712" x2="225.18" y2="60.9559" gradientUnits="userSpaceOnUse">
<stop stop-color="#C27AFF"/>
<stop offset="1" stop-color="#241D29"/>
</linearGradient>
<linearGradient id="paint2_linear_1_49" x1="149.033" y1="19.9307" x2="149.033" y2="62.2283" gradientUnits="userSpaceOnUse">
<stop stop-color="#C27AFF"/>
<stop offset="1" stop-color="#241D29"/>
</linearGradient>
<linearGradient id="paint3_linear_1_49" x1="186.754" y1="42.737" x2="186.754" y2="94.6604" gradientUnits="userSpaceOnUse">
<stop stop-color="#C27AFF"/>
<stop offset="1" stop-color="#241D29"/>
</linearGradient>
<linearGradient id="paint4_linear_1_49" x1="291.817" y1="59.902" x2="291.817" y2="103.288" gradientUnits="userSpaceOnUse">
<stop stop-color="#C27AFF"/>
<stop offset="1" stop-color="#241D29"/>
</linearGradient>
<linearGradient id="paint5_linear_1_49" x1="247.443" y1="60.7094" x2="247.443" y2="108.21" gradientUnits="userSpaceOnUse">
<stop stop-color="#C27AFF"/>
<stop offset="1" stop-color="#241D29"/>
</linearGradient>
<linearGradient id="paint6_linear_1_49" x1="83.2692" y1="61.8688" x2="83.2692" y2="105.405" gradientUnits="userSpaceOnUse">
<stop stop-color="#C27AFF"/>
<stop offset="1" stop-color="#241D29"/>
</linearGradient>
<linearGradient id="paint7_linear_1_49" x1="126.686" y1="62.6676" x2="126.686" y2="108.287" gradientUnits="userSpaceOnUse">
<stop stop-color="#C27AFF"/>
<stop offset="1" stop-color="#241D29"/>
</linearGradient>
<linearGradient id="paint8_linear_1_49" x1="208.187" y1="74.8832" x2="208.187" y2="127.452" gradientUnits="userSpaceOnUse">
<stop stop-color="#C27AFF"/>
<stop offset="1" stop-color="#241D29"/>
</linearGradient>
<linearGradient id="paint9_linear_1_49" x1="166.58" y1="75.8482" x2="166.58" y2="126.71" gradientUnits="userSpaceOnUse">
<stop stop-color="#C27AFF"/>
<stop offset="1" stop-color="#241D29"/>
</linearGradient>
<linearGradient id="paint10_linear_1_49" x1="247.694" y1="105.067" x2="247.694" y2="150.139" gradientUnits="userSpaceOnUse">
<stop stop-color="#C27AFF"/>
<stop offset="1" stop-color="#241D29"/>
</linearGradient>
<linearGradient id="paint11_linear_1_49" x1="289.403" y1="105.005" x2="289.403" y2="147.742" gradientUnits="userSpaceOnUse">
<stop stop-color="#C27AFF"/>
<stop offset="1" stop-color="#241D29"/>
</linearGradient>
<linearGradient id="paint12_linear_1_49" x1="126.964" y1="106.882" x2="126.964" y2="149.699" gradientUnits="userSpaceOnUse">
<stop stop-color="#C27AFF"/>
<stop offset="1" stop-color="#241D29"/>
</linearGradient>
<linearGradient id="paint13_linear_1_49" x1="85.1754" y1="107.402" x2="85.1754" y2="149.445" gradientUnits="userSpaceOnUse">
<stop stop-color="#C27AFF"/>
<stop offset="1" stop-color="#241D29"/>
</linearGradient>
<linearGradient id="paint14_linear_1_49" x1="335.523" y1="118.985" x2="335.523" y2="178.497" gradientUnits="userSpaceOnUse">
<stop stop-color="#C27AFF"/>
<stop offset="1" stop-color="#241D29"/>
</linearGradient>
<linearGradient id="paint15_linear_1_49" x1="41.301" y1="121.177" x2="41.301" y2="179.296" gradientUnits="userSpaceOnUse">
<stop stop-color="#C27AFF"/>
<stop offset="1" stop-color="#241D29"/>
</linearGradient>
<linearGradient id="paint16_linear_1_49" x1="187.162" y1="130.63" x2="187.162" y2="243.86" gradientUnits="userSpaceOnUse">
<stop stop-color="#C27AFF"/>
<stop offset="1" stop-color="#241D29"/>
</linearGradient>
<linearGradient id="paint17_linear_1_49" x1="273.522" y1="151.89" x2="273.522" y2="182.131" gradientUnits="userSpaceOnUse">
<stop stop-color="#C27AFF"/>
<stop offset="1" stop-color="#241D29"/>
</linearGradient>
<linearGradient id="paint18_linear_1_49" x1="101.065" y1="152.672" x2="101.065" y2="183.659" gradientUnits="userSpaceOnUse">
<stop stop-color="#C27AFF"/>
<stop offset="1" stop-color="#241D29"/>
</linearGradient>
<linearGradient id="paint19_linear_1_49" x1="305.982" y1="161.761" x2="305.982" y2="211.648" gradientUnits="userSpaceOnUse">
<stop stop-color="#C27AFF"/>
<stop offset="1" stop-color="#241D29"/>
</linearGradient>
<linearGradient id="paint20_linear_1_49" x1="69.5404" y1="164.306" x2="69.5404" y2="214.044" gradientUnits="userSpaceOnUse">
<stop stop-color="#C27AFF"/>
<stop offset="1" stop-color="#241D29"/>
</linearGradient>
<linearGradient id="paint21_linear_1_49" x1="274.564" y1="192.476" x2="274.564" y2="223.528" gradientUnits="userSpaceOnUse">
<stop stop-color="#C27AFF"/>
<stop offset="1" stop-color="#241D29"/>
</linearGradient>
<linearGradient id="paint22_linear_1_49" x1="101.605" y1="194.106" x2="101.605" y2="225.431" gradientUnits="userSpaceOnUse">
<stop stop-color="#C27AFF"/>
<stop offset="1" stop-color="#241D29"/>
</linearGradient>
<linearGradient id="paint23_linear_1_49" x1="336.397" y1="197.134" x2="336.397" y2="256.382" gradientUnits="userSpaceOnUse">
<stop stop-color="#C27AFF"/>
<stop offset="1" stop-color="#241D29"/>
</linearGradient>
<linearGradient id="paint24_linear_1_49" x1="40.8653" y1="197.678" x2="40.8653" y2="255.507" gradientUnits="userSpaceOnUse">
<stop stop-color="#C27AFF"/>
<stop offset="1" stop-color="#241D29"/>
</linearGradient>
<linearGradient id="paint25_linear_1_49" x1="247.72" y1="225.667" x2="247.72" y2="270.24" gradientUnits="userSpaceOnUse">
<stop stop-color="#C27AFF"/>
<stop offset="1" stop-color="#241D29"/>
</linearGradient>
<linearGradient id="paint26_linear_1_49" x1="290.297" y1="226.365" x2="290.297" y2="270.161" gradientUnits="userSpaceOnUse">
<stop stop-color="#C27AFF"/>
<stop offset="1" stop-color="#241D29"/>
</linearGradient>
<linearGradient id="paint27_linear_1_49" x1="127.798" y1="227.663" x2="127.798" y2="271" gradientUnits="userSpaceOnUse">
<stop stop-color="#C27AFF"/>
<stop offset="1" stop-color="#241D29"/>
</linearGradient>
<linearGradient id="paint28_linear_1_49" x1="85.1475" y1="228.467" x2="85.1475" y2="270.681" gradientUnits="userSpaceOnUse">
<stop stop-color="#C27AFF"/>
<stop offset="1" stop-color="#241D29"/>
</linearGradient>
<linearGradient id="paint29_linear_1_49" x1="209.147" y1="247.634" x2="209.147" y2="299.518" gradientUnits="userSpaceOnUse">
<stop stop-color="#C27AFF"/>
<stop offset="1" stop-color="#241D29"/>
</linearGradient>
<linearGradient id="paint30_linear_1_49" x1="168.04" y1="249.192" x2="168.04" y2="301.595" gradientUnits="userSpaceOnUse">
<stop stop-color="#C27AFF"/>
<stop offset="1" stop-color="#241D29"/>
</linearGradient>
<linearGradient id="paint31_linear_1_49" x1="248.569" y1="266.49" x2="248.569" y2="314.017" gradientUnits="userSpaceOnUse">
<stop stop-color="#C27AFF"/>
<stop offset="1" stop-color="#241D29"/>
</linearGradient>
<linearGradient id="paint32_linear_1_49" x1="127.1" y1="269.202" x2="127.1" y2="314.296" gradientUnits="userSpaceOnUse">
<stop stop-color="#C27AFF"/>
<stop offset="1" stop-color="#241D29"/>
</linearGradient>
<linearGradient id="paint33_linear_1_49" x1="82.4976" y1="271.559" x2="82.4976" y2="314.697" gradientUnits="userSpaceOnUse">
<stop stop-color="#C27AFF"/>
<stop offset="1" stop-color="#241D29"/>
</linearGradient>
<linearGradient id="paint34_linear_1_49" x1="293.222" y1="271.959" x2="293.222" y2="315.082" gradientUnits="userSpaceOnUse">
<stop stop-color="#C27AFF"/>
<stop offset="1" stop-color="#241D29"/>
</linearGradient>
<linearGradient id="paint35_linear_1_49" x1="188.071" y1="278.629" x2="188.071" y2="334.267" gradientUnits="userSpaceOnUse">
<stop stop-color="#C27AFF"/>
<stop offset="1" stop-color="#241D29"/>
</linearGradient>
<linearGradient id="paint36_linear_1_49" x1="225.163" y1="313.934" x2="225.163" y2="358.631" gradientUnits="userSpaceOnUse">
<stop stop-color="#C27AFF"/>
<stop offset="1" stop-color="#241D29"/>
</linearGradient>
<linearGradient id="paint37_linear_1_49" x1="148.225" y1="315.213" x2="148.225" y2="356.674" gradientUnits="userSpaceOnUse">
<stop stop-color="#C27AFF"/>
<stop offset="1" stop-color="#241D29"/>
</linearGradient>
</defs>
</svg>
